# xmcd CD database file
#
# Track frame offsets:
#	150
#	20077
#	43962
#	65170
#	88442
#	107930
#	140395
#	162812
#	186287
#	201375
#	211372
#
# Disc length: 3204 seconds
#
# Revision: 0
# Processed by: cddbd v1.5.2PL0 Copyright (c) Steve Scherf et al.
# Submitted via: CDex 1.60beta1-cs1
#
DISCID=b10c820b
DTITLE=Geneva Red And The Roadsters - In The Red
DYEAR=2000
DGENRE=Blues
TTITLE0=First Tune, First Set
TTITLE1=If I'd Shot You Baby
TTITLE2=Dancin' Shoes Shuffle
TTITLE3=Cotton 'Aint King
TTITLE4=Red's Theme
TTITLE5=Hung 'n Tumblin'
TTITLE6=They Tryin' To Ruin Us
TTITLE7=Syatic Blues
TTITLE8=Breakfast Song
TTITLE9=My Tribute To DeFord
TTITLE10=Give Yourself A Break
EXTD=YEAR: 2000
EXTT0=
EXTT1=
EXTT2=
EXTT3=
EXTT4=
EXTT5=
EXTT6=
EXTT7=
EXTT8=
EXTT9=
EXTT10=
PLAYORDER=
